<mxfile host="app.diagrams.net" agent="Mozilla/5.0 (Windows NT 10.0; Win64; x64) AppleWebKit/537.36 (KHTML, like Gecko) Chrome/132.0.0.0 Safari/537.36" version="26.0.10">
  <diagram name="Página-1" id="QjnRR7jEjkSnEzNFnNj9">
    <mxGraphModel dx="1173" dy="513" grid="1" gridSize="10" guides="1" tooltips="1" connect="1" arrows="1" fold="1" page="1" pageScale="1" pageWidth="2910" pageHeight="1030" math="0" shadow="0">
      <root>
        <mxCell id="0" />
        <mxCell id="1" parent="0" />
        <mxCell id="Rm7F8vrEzkFGW5DVcHOp-1" value="Proceso legalización de glosa" style="swimlane;html=1;childLayout=stackLayout;resizeParent=1;resizeParentMax=0;horizontal=1;startSize=20;horizontalStack=0;whiteSpace=wrap;" vertex="1" parent="1">
          <mxGeometry x="20" y="20" width="2980" height="1130" as="geometry" />
        </mxCell>
        <mxCell id="Rm7F8vrEzkFGW5DVcHOp-2" value="Crear FL" style="swimlane;html=1;startSize=20;horizontal=0;" vertex="1" parent="Rm7F8vrEzkFGW5DVcHOp-1">
          <mxGeometry y="20" width="2980" height="150" as="geometry" />
        </mxCell>
        <mxCell id="Rm7F8vrEzkFGW5DVcHOp-5" value="Inicio" style="points=[[0.145,0.145,0],[0.5,0,0],[0.855,0.145,0],[1,0.5,0],[0.855,0.855,0],[0.5,1,0],[0.145,0.855,0],[0,0.5,0]];shape=mxgraph.bpmn.event;html=1;verticalLabelPosition=bottom;labelBackgroundColor=#ffffff;verticalAlign=top;align=center;perimeter=ellipsePerimeter;outlineConnect=0;aspect=fixed;outline=standard;symbol=general;fillColor=#f8cecc;strokeColor=#b85450;" vertex="1" parent="Rm7F8vrEzkFGW5DVcHOp-2">
          <mxGeometry x="50" y="50" width="50" height="50" as="geometry" />
        </mxCell>
        <mxCell id="Rm7F8vrEzkFGW5DVcHOp-9" value="¿Creación masiva &lt;br&gt;o manual?" style="points=[[0.25,0.25,0],[0.5,0,0],[0.75,0.25,0],[1,0.5,0],[0.75,0.75,0],[0.5,1,0],[0.25,0.75,0],[0,0.5,0]];shape=mxgraph.bpmn.gateway2;html=1;verticalLabelPosition=top;labelBackgroundColor=#ffffff;verticalAlign=bottom;align=center;perimeter=rhombusPerimeter;outlineConnect=0;outline=none;symbol=none;labelPosition=center;fillColor=#d5e8d4;strokeColor=#82b366;" vertex="1" parent="Rm7F8vrEzkFGW5DVcHOp-2">
          <mxGeometry x="140" y="50" width="50" height="50" as="geometry" />
        </mxCell>
        <mxCell id="Rm7F8vrEzkFGW5DVcHOp-6" style="edgeStyle=orthogonalEdgeStyle;rounded=0;orthogonalLoop=1;jettySize=auto;html=1;entryX=0;entryY=0.5;entryDx=0;entryDy=0;entryPerimeter=0;" edge="1" parent="Rm7F8vrEzkFGW5DVcHOp-2" source="Rm7F8vrEzkFGW5DVcHOp-5" target="Rm7F8vrEzkFGW5DVcHOp-9">
          <mxGeometry relative="1" as="geometry">
            <mxPoint x="140" y="75" as="targetPoint" />
          </mxGeometry>
        </mxCell>
        <mxCell id="Rm7F8vrEzkFGW5DVcHOp-3" value="OASIS - EFAC" style="swimlane;html=1;startSize=20;horizontal=0;" vertex="1" parent="Rm7F8vrEzkFGW5DVcHOp-1">
          <mxGeometry y="170" width="2980" height="270" as="geometry" />
        </mxCell>
        <mxCell id="Rm7F8vrEzkFGW5DVcHOp-15" value="Generar FL en estado ACTIVO" style="points=[[0.25,0,0],[0.5,0,0],[0.75,0,0],[1,0.25,0],[1,0.5,0],[1,0.75,0],[0.75,1,0],[0.5,1,0],[0.25,1,0],[0,0.75,0],[0,0.5,0],[0,0.25,0]];shape=mxgraph.bpmn.task2;whiteSpace=wrap;rectStyle=rounded;size=10;html=1;container=1;expand=0;collapsible=0;taskMarker=script;fillColor=#fff2cc;strokeColor=#d6b656;" vertex="1" parent="Rm7F8vrEzkFGW5DVcHOp-3">
          <mxGeometry x="380" y="60" width="120" height="80" as="geometry" />
        </mxCell>
        <mxCell id="Rm7F8vrEzkFGW5DVcHOp-16" style="edgeStyle=orthogonalEdgeStyle;rounded=0;orthogonalLoop=1;jettySize=auto;html=1;entryX=0;entryY=0.5;entryDx=0;entryDy=0;entryPerimeter=0;" edge="1" parent="Rm7F8vrEzkFGW5DVcHOp-3" source="Rm7F8vrEzkFGW5DVcHOp-15" target="Rm7F8vrEzkFGW5DVcHOp-19">
          <mxGeometry relative="1" as="geometry">
            <mxPoint x="530" y="99.99999999999989" as="targetPoint" />
          </mxGeometry>
        </mxCell>
        <mxCell id="Rm7F8vrEzkFGW5DVcHOp-19" value="" style="points=[[0.25,0.25,0],[0.5,0,0],[0.75,0.25,0],[1,0.5,0],[0.75,0.75,0],[0.5,1,0],[0.25,0.75,0],[0,0.5,0]];shape=mxgraph.bpmn.gateway2;html=1;verticalLabelPosition=bottom;labelBackgroundColor=#ffffff;verticalAlign=top;align=center;perimeter=rhombusPerimeter;outlineConnect=0;outline=end;symbol=general;fillColor=#d5e8d4;strokeColor=#82b366;" vertex="1" parent="Rm7F8vrEzkFGW5DVcHOp-3">
          <mxGeometry x="530" y="75" width="50" height="50" as="geometry" />
        </mxCell>
        <mxCell id="Rm7F8vrEzkFGW5DVcHOp-13" value="Crear registro FL en módulo EFAC" style="points=[[0.25,0,0],[0.5,0,0],[0.75,0,0],[1,0.25,0],[1,0.5,0],[1,0.75,0],[0.75,1,0],[0.5,1,0],[0.25,1,0],[0,0.75,0],[0,0.5,0],[0,0.25,0]];shape=mxgraph.bpmn.task2;whiteSpace=wrap;rectStyle=rounded;size=10;html=1;container=1;expand=0;collapsible=0;taskMarker=user;fillColor=#fff2cc;strokeColor=#d6b656;" vertex="1" parent="Rm7F8vrEzkFGW5DVcHOp-3">
          <mxGeometry x="230" y="60" width="120" height="80" as="geometry" />
        </mxCell>
        <mxCell id="Rm7F8vrEzkFGW5DVcHOp-14" style="edgeStyle=orthogonalEdgeStyle;rounded=0;orthogonalLoop=1;jettySize=auto;html=1;" edge="1" parent="Rm7F8vrEzkFGW5DVcHOp-3" source="Rm7F8vrEzkFGW5DVcHOp-13" target="Rm7F8vrEzkFGW5DVcHOp-15">
          <mxGeometry relative="1" as="geometry">
            <mxPoint x="410" y="-80" as="targetPoint" />
          </mxGeometry>
        </mxCell>
        <mxCell id="Rm7F8vrEzkFGW5DVcHOp-33" value="¿Existe una &lt;br&gt;factura con&lt;br&gt;saldo?" style="points=[[0.25,0.25,0],[0.5,0,0],[0.75,0.25,0],[1,0.5,0],[0.75,0.75,0],[0.5,1,0],[0.25,0.75,0],[0,0.5,0]];shape=mxgraph.bpmn.gateway2;html=1;verticalLabelPosition=top;labelBackgroundColor=#ffffff;verticalAlign=bottom;align=center;perimeter=rhombusPerimeter;outlineConnect=0;outline=none;symbol=none;labelPosition=center;fillColor=#d5e8d4;strokeColor=#82b366;" vertex="1" parent="Rm7F8vrEzkFGW5DVcHOp-3">
          <mxGeometry x="690" y="75" width="50" height="50" as="geometry" />
        </mxCell>
        <mxCell id="Rm7F8vrEzkFGW5DVcHOp-32" style="edgeStyle=orthogonalEdgeStyle;rounded=0;orthogonalLoop=1;jettySize=auto;html=1;" edge="1" parent="Rm7F8vrEzkFGW5DVcHOp-3" source="Rm7F8vrEzkFGW5DVcHOp-19" target="Rm7F8vrEzkFGW5DVcHOp-33">
          <mxGeometry relative="1" as="geometry">
            <mxPoint x="710" y="100" as="targetPoint" />
          </mxGeometry>
        </mxCell>
        <mxCell id="Rm7F8vrEzkFGW5DVcHOp-35" value="Fin" style="points=[[0.145,0.145,0],[0.5,0,0],[0.855,0.145,0],[1,0.5,0],[0.855,0.855,0],[0.5,1,0],[0.145,0.855,0],[0,0.5,0]];shape=mxgraph.bpmn.event;html=1;verticalLabelPosition=bottom;labelBackgroundColor=#ffffff;verticalAlign=top;align=center;perimeter=ellipsePerimeter;outlineConnect=0;aspect=fixed;outline=end;symbol=terminate2;fillColor=#f8cecc;strokeColor=#b85450;" vertex="1" parent="Rm7F8vrEzkFGW5DVcHOp-3">
          <mxGeometry x="690" y="170" width="50" height="50" as="geometry" />
        </mxCell>
        <mxCell id="Rm7F8vrEzkFGW5DVcHOp-34" style="edgeStyle=orthogonalEdgeStyle;rounded=0;orthogonalLoop=1;jettySize=auto;html=1;" edge="1" parent="Rm7F8vrEzkFGW5DVcHOp-3" source="Rm7F8vrEzkFGW5DVcHOp-33" target="Rm7F8vrEzkFGW5DVcHOp-35">
          <mxGeometry relative="1" as="geometry">
            <mxPoint x="715" y="180" as="targetPoint" />
          </mxGeometry>
        </mxCell>
        <mxCell id="Rm7F8vrEzkFGW5DVcHOp-36" value="No" style="edgeLabel;html=1;align=center;verticalAlign=middle;resizable=0;points=[];" vertex="1" connectable="0" parent="Rm7F8vrEzkFGW5DVcHOp-34">
          <mxGeometry x="0.256" y="-1" relative="1" as="geometry">
            <mxPoint x="1" y="-13" as="offset" />
          </mxGeometry>
        </mxCell>
        <mxCell id="Rm7F8vrEzkFGW5DVcHOp-39" value="¿Existe &lt;br&gt;glosa?" style="points=[[0.25,0.25,0],[0.5,0,0],[0.75,0.25,0],[1,0.5,0],[0.75,0.75,0],[0.5,1,0],[0.25,0.75,0],[0,0.5,0]];shape=mxgraph.bpmn.gateway2;html=1;verticalLabelPosition=top;labelBackgroundColor=#ffffff;verticalAlign=bottom;align=center;perimeter=rhombusPerimeter;outlineConnect=0;outline=none;symbol=none;labelPosition=center;fillColor=#d5e8d4;strokeColor=#82b366;" vertex="1" parent="Rm7F8vrEzkFGW5DVcHOp-3">
          <mxGeometry x="780" y="75" width="50" height="50" as="geometry" />
        </mxCell>
        <mxCell id="Rm7F8vrEzkFGW5DVcHOp-38" style="edgeStyle=orthogonalEdgeStyle;rounded=0;orthogonalLoop=1;jettySize=auto;html=1;" edge="1" parent="Rm7F8vrEzkFGW5DVcHOp-3" source="Rm7F8vrEzkFGW5DVcHOp-33" target="Rm7F8vrEzkFGW5DVcHOp-39">
          <mxGeometry relative="1" as="geometry">
            <mxPoint x="790" y="100" as="targetPoint" />
          </mxGeometry>
        </mxCell>
        <mxCell id="Rm7F8vrEzkFGW5DVcHOp-50" value="Si" style="edgeLabel;html=1;align=center;verticalAlign=middle;resizable=0;points=[];" vertex="1" connectable="0" parent="Rm7F8vrEzkFGW5DVcHOp-38">
          <mxGeometry x="-0.15" y="-1" relative="1" as="geometry">
            <mxPoint as="offset" />
          </mxGeometry>
        </mxCell>
        <mxCell id="Rm7F8vrEzkFGW5DVcHOp-41" value="Fin" style="points=[[0.145,0.145,0],[0.5,0,0],[0.855,0.145,0],[1,0.5,0],[0.855,0.855,0],[0.5,1,0],[0.145,0.855,0],[0,0.5,0]];shape=mxgraph.bpmn.event;html=1;verticalLabelPosition=bottom;labelBackgroundColor=#ffffff;verticalAlign=top;align=center;perimeter=ellipsePerimeter;outlineConnect=0;aspect=fixed;outline=end;symbol=terminate2;fillColor=#f8cecc;strokeColor=#b85450;" vertex="1" parent="Rm7F8vrEzkFGW5DVcHOp-3">
          <mxGeometry x="780" y="170" width="50" height="50" as="geometry" />
        </mxCell>
        <mxCell id="Rm7F8vrEzkFGW5DVcHOp-40" style="edgeStyle=orthogonalEdgeStyle;rounded=0;orthogonalLoop=1;jettySize=auto;html=1;" edge="1" parent="Rm7F8vrEzkFGW5DVcHOp-3" source="Rm7F8vrEzkFGW5DVcHOp-39" target="Rm7F8vrEzkFGW5DVcHOp-41">
          <mxGeometry relative="1" as="geometry">
            <mxPoint x="805" y="190" as="targetPoint" />
          </mxGeometry>
        </mxCell>
        <mxCell id="Rm7F8vrEzkFGW5DVcHOp-43" value="No" style="edgeLabel;html=1;align=center;verticalAlign=middle;resizable=0;points=[];" vertex="1" connectable="0" parent="Rm7F8vrEzkFGW5DVcHOp-40">
          <mxGeometry x="-0.33" relative="1" as="geometry">
            <mxPoint as="offset" />
          </mxGeometry>
        </mxCell>
        <mxCell id="Rm7F8vrEzkFGW5DVcHOp-45" value="¿Glosa &lt;br&gt;legalizada?" style="points=[[0.25,0.25,0],[0.5,0,0],[0.75,0.25,0],[1,0.5,0],[0.75,0.75,0],[0.5,1,0],[0.25,0.75,0],[0,0.5,0]];shape=mxgraph.bpmn.gateway2;html=1;verticalLabelPosition=top;labelBackgroundColor=#ffffff;verticalAlign=bottom;align=center;perimeter=rhombusPerimeter;outlineConnect=0;outline=none;symbol=none;labelPosition=center;fillColor=#d5e8d4;strokeColor=#82b366;" vertex="1" parent="Rm7F8vrEzkFGW5DVcHOp-3">
          <mxGeometry x="1030" y="75" width="50" height="50" as="geometry" />
        </mxCell>
        <mxCell id="Rm7F8vrEzkFGW5DVcHOp-44" style="edgeStyle=orthogonalEdgeStyle;rounded=0;orthogonalLoop=1;jettySize=auto;html=1;entryX=0;entryY=0.5;entryDx=0;entryDy=0;entryPerimeter=0;" edge="1" parent="Rm7F8vrEzkFGW5DVcHOp-3" source="Rm7F8vrEzkFGW5DVcHOp-39" target="Rm7F8vrEzkFGW5DVcHOp-55">
          <mxGeometry relative="1" as="geometry">
            <mxPoint x="890" y="100" as="targetPoint" />
          </mxGeometry>
        </mxCell>
        <mxCell id="Rm7F8vrEzkFGW5DVcHOp-51" value="Si" style="edgeLabel;html=1;align=center;verticalAlign=middle;resizable=0;points=[];" vertex="1" connectable="0" parent="Rm7F8vrEzkFGW5DVcHOp-44">
          <mxGeometry x="-0.1" y="3" relative="1" as="geometry">
            <mxPoint as="offset" />
          </mxGeometry>
        </mxCell>
        <mxCell id="Rm7F8vrEzkFGW5DVcHOp-56" style="edgeStyle=orthogonalEdgeStyle;rounded=0;orthogonalLoop=1;jettySize=auto;html=1;" edge="1" parent="Rm7F8vrEzkFGW5DVcHOp-3" source="Rm7F8vrEzkFGW5DVcHOp-55" target="Rm7F8vrEzkFGW5DVcHOp-45">
          <mxGeometry relative="1" as="geometry" />
        </mxCell>
        <mxCell id="Rm7F8vrEzkFGW5DVcHOp-55" value="Procesar glosa" style="points=[[0.25,0,0],[0.5,0,0],[0.75,0,0],[1,0.25,0],[1,0.5,0],[1,0.75,0],[0.75,1,0],[0.5,1,0],[0.25,1,0],[0,0.75,0],[0,0.5,0],[0,0.25,0]];shape=mxgraph.bpmn.task2;whiteSpace=wrap;rectStyle=rounded;size=10;html=1;container=1;expand=0;collapsible=0;taskMarker=script;fillColor=#fff2cc;strokeColor=#d6b656;" vertex="1" parent="Rm7F8vrEzkFGW5DVcHOp-3">
          <mxGeometry x="870" y="60" width="120" height="80" as="geometry" />
        </mxCell>
        <mxCell id="Rm7F8vrEzkFGW5DVcHOp-68" value="Marcar campo legalizado en la FD" style="points=[[0.25,0,0],[0.5,0,0],[0.75,0,0],[1,0.25,0],[1,0.5,0],[1,0.75,0],[0.75,1,0],[0.5,1,0],[0.25,1,0],[0,0.75,0],[0,0.5,0],[0,0.25,0]];shape=mxgraph.bpmn.task2;whiteSpace=wrap;rectStyle=rounded;size=10;html=1;container=1;expand=0;collapsible=0;taskMarker=script;fillColor=#fff2cc;strokeColor=#d6b656;" vertex="1" parent="Rm7F8vrEzkFGW5DVcHOp-3">
          <mxGeometry x="2080" y="30" width="120" height="80" as="geometry" />
        </mxCell>
        <mxCell id="Rm7F8vrEzkFGW5DVcHOp-131" style="edgeStyle=orthogonalEdgeStyle;rounded=0;orthogonalLoop=1;jettySize=auto;html=1;" edge="1" parent="Rm7F8vrEzkFGW5DVcHOp-3" source="Rm7F8vrEzkFGW5DVcHOp-70" target="Rm7F8vrEzkFGW5DVcHOp-129">
          <mxGeometry relative="1" as="geometry" />
        </mxCell>
        <mxCell id="Rm7F8vrEzkFGW5DVcHOp-70" value="Anular documento FL, colocar campo estado &quot;ANULADO&quot;" style="points=[[0.25,0,0],[0.5,0,0],[0.75,0,0],[1,0.25,0],[1,0.5,0],[1,0.75,0],[0.75,1,0],[0.5,1,0],[0.25,1,0],[0,0.75,0],[0,0.5,0],[0,0.25,0]];shape=mxgraph.bpmn.task2;whiteSpace=wrap;rectStyle=rounded;size=10;html=1;container=1;expand=0;collapsible=0;taskMarker=script;fillColor=#fff2cc;strokeColor=#d6b656;" vertex="1" parent="Rm7F8vrEzkFGW5DVcHOp-3">
          <mxGeometry x="2240" y="30" width="120" height="80" as="geometry" />
        </mxCell>
        <mxCell id="Rm7F8vrEzkFGW5DVcHOp-69" style="edgeStyle=orthogonalEdgeStyle;rounded=0;orthogonalLoop=1;jettySize=auto;html=1;" edge="1" parent="Rm7F8vrEzkFGW5DVcHOp-3" source="Rm7F8vrEzkFGW5DVcHOp-68" target="Rm7F8vrEzkFGW5DVcHOp-70">
          <mxGeometry relative="1" as="geometry">
            <mxPoint x="2520" y="60" as="targetPoint" />
          </mxGeometry>
        </mxCell>
        <mxCell id="Rm7F8vrEzkFGW5DVcHOp-72" value="Comparar campos del detalle de la FL &quot;Valor&quot; vs &quot;Valor Glosado&quot;" style="points=[[0.25,0,0],[0.5,0,0],[0.75,0,0],[1,0.25,0],[1,0.5,0],[1,0.75,0],[0.75,1,0],[0.5,1,0],[0.25,1,0],[0,0.75,0],[0,0.5,0],[0,0.25,0]];shape=mxgraph.bpmn.task2;whiteSpace=wrap;rectStyle=rounded;size=10;html=1;container=1;expand=0;collapsible=0;taskMarker=script;fillColor=#fff2cc;strokeColor=#d6b656;" vertex="1" parent="Rm7F8vrEzkFGW5DVcHOp-3">
          <mxGeometry x="2080" y="140" width="120" height="80" as="geometry" />
        </mxCell>
        <mxCell id="Rm7F8vrEzkFGW5DVcHOp-113" value="Colocar FL en estado PROCESADO" style="points=[[0.25,0,0],[0.5,0,0],[0.75,0,0],[1,0.25,0],[1,0.5,0],[1,0.75,0],[0.75,1,0],[0.5,1,0],[0.25,1,0],[0,0.75,0],[0,0.5,0],[0,0.25,0]];shape=mxgraph.bpmn.task2;whiteSpace=wrap;rectStyle=rounded;size=10;html=1;container=1;expand=0;collapsible=0;taskMarker=script;fillColor=#fff2cc;strokeColor=#d6b656;" vertex="1" parent="Rm7F8vrEzkFGW5DVcHOp-3">
          <mxGeometry x="2640" y="140" width="120" height="80" as="geometry" />
        </mxCell>
        <mxCell id="Rm7F8vrEzkFGW5DVcHOp-125" style="edgeStyle=orthogonalEdgeStyle;rounded=0;orthogonalLoop=1;jettySize=auto;html=1;" edge="1" parent="Rm7F8vrEzkFGW5DVcHOp-3" source="Rm7F8vrEzkFGW5DVcHOp-132" target="Rm7F8vrEzkFGW5DVcHOp-113">
          <mxGeometry relative="1" as="geometry" />
        </mxCell>
        <mxCell id="Rm7F8vrEzkFGW5DVcHOp-128" value="Fin proceso" style="points=[[0.145,0.145,0],[0.5,0,0],[0.855,0.145,0],[1,0.5,0],[0.855,0.855,0],[0.5,1,0],[0.145,0.855,0],[0,0.5,0]];shape=mxgraph.bpmn.event;html=1;verticalLabelPosition=bottom;labelBackgroundColor=#ffffff;verticalAlign=top;align=center;perimeter=ellipsePerimeter;outlineConnect=0;aspect=fixed;outline=end;symbol=terminate;fillColor=#f8cecc;strokeColor=#b85450;" vertex="1" parent="Rm7F8vrEzkFGW5DVcHOp-3">
          <mxGeometry x="2870" y="155" width="50" height="50" as="geometry" />
        </mxCell>
        <mxCell id="Rm7F8vrEzkFGW5DVcHOp-127" style="edgeStyle=orthogonalEdgeStyle;rounded=0;orthogonalLoop=1;jettySize=auto;html=1;" edge="1" parent="Rm7F8vrEzkFGW5DVcHOp-3" source="Rm7F8vrEzkFGW5DVcHOp-129" target="Rm7F8vrEzkFGW5DVcHOp-128">
          <mxGeometry relative="1" as="geometry">
            <mxPoint x="3040" y="180" as="targetPoint" />
          </mxGeometry>
        </mxCell>
        <mxCell id="Rm7F8vrEzkFGW5DVcHOp-129" value="" style="points=[[0.25,0.25,0],[0.5,0,0],[0.75,0.25,0],[1,0.5,0],[0.75,0.75,0],[0.5,1,0],[0.25,0.75,0],[0,0.5,0]];shape=mxgraph.bpmn.gateway2;html=1;verticalLabelPosition=bottom;labelBackgroundColor=#ffffff;verticalAlign=top;align=center;perimeter=rhombusPerimeter;outlineConnect=0;outline=end;symbol=general;fillColor=#d5e8d4;strokeColor=#82b366;" vertex="1" parent="Rm7F8vrEzkFGW5DVcHOp-3">
          <mxGeometry x="2790" y="155" width="50" height="50" as="geometry" />
        </mxCell>
        <mxCell id="Rm7F8vrEzkFGW5DVcHOp-130" value="" style="edgeStyle=orthogonalEdgeStyle;rounded=0;orthogonalLoop=1;jettySize=auto;html=1;" edge="1" parent="Rm7F8vrEzkFGW5DVcHOp-3" source="Rm7F8vrEzkFGW5DVcHOp-113" target="Rm7F8vrEzkFGW5DVcHOp-129">
          <mxGeometry relative="1" as="geometry">
            <mxPoint x="3090" y="370" as="targetPoint" />
            <mxPoint x="3000" y="370" as="sourcePoint" />
          </mxGeometry>
        </mxCell>
        <mxCell id="Rm7F8vrEzkFGW5DVcHOp-132" value="Marcar campo legalizado en la FD" style="points=[[0.25,0,0],[0.5,0,0],[0.75,0,0],[1,0.25,0],[1,0.5,0],[1,0.75,0],[0.75,1,0],[0.5,1,0],[0.25,1,0],[0,0.75,0],[0,0.5,0],[0,0.25,0]];shape=mxgraph.bpmn.task2;whiteSpace=wrap;rectStyle=rounded;size=10;html=1;container=1;expand=0;collapsible=0;taskMarker=script;fillColor=#fff2cc;strokeColor=#d6b656;" vertex="1" parent="Rm7F8vrEzkFGW5DVcHOp-3">
          <mxGeometry x="2490" y="140" width="120" height="80" as="geometry" />
        </mxCell>
        <mxCell id="Rm7F8vrEzkFGW5DVcHOp-135" value="Inicio" style="points=[[0.145,0.145,0],[0.5,0,0],[0.855,0.145,0],[1,0.5,0],[0.855,0.855,0],[0.5,1,0],[0.145,0.855,0],[0,0.5,0]];shape=mxgraph.bpmn.event;html=1;verticalLabelPosition=bottom;labelBackgroundColor=#ffffff;verticalAlign=top;align=center;perimeter=ellipsePerimeter;outlineConnect=0;aspect=fixed;outline=standard;symbol=general;fillColor=#f8cecc;strokeColor=#b85450;" vertex="1" parent="Rm7F8vrEzkFGW5DVcHOp-3">
          <mxGeometry x="1600" y="105" width="50" height="50" as="geometry" />
        </mxCell>
        <mxCell id="Rm7F8vrEzkFGW5DVcHOp-136" value="Procesar documento FL" style="points=[[0.25,0,0],[0.5,0,0],[0.75,0,0],[1,0.25,0],[1,0.5,0],[1,0.75,0],[0.75,1,0],[0.5,1,0],[0.25,1,0],[0,0.75,0],[0,0.5,0],[0,0.25,0]];shape=mxgraph.bpmn.task2;whiteSpace=wrap;rectStyle=rounded;size=10;html=1;container=1;expand=0;collapsible=0;taskMarker=abstract;fillColor=#fff2cc;strokeColor=#d6b656;" vertex="1" parent="Rm7F8vrEzkFGW5DVcHOp-3">
          <mxGeometry x="1680" y="90" width="120" height="80" as="geometry" />
        </mxCell>
        <mxCell id="Rm7F8vrEzkFGW5DVcHOp-137" style="edgeStyle=orthogonalEdgeStyle;rounded=0;orthogonalLoop=1;jettySize=auto;html=1;entryX=0;entryY=0.5;entryDx=0;entryDy=0;entryPerimeter=0;" edge="1" parent="Rm7F8vrEzkFGW5DVcHOp-3" source="Rm7F8vrEzkFGW5DVcHOp-135" target="Rm7F8vrEzkFGW5DVcHOp-136">
          <mxGeometry relative="1" as="geometry" />
        </mxCell>
        <mxCell id="Rm7F8vrEzkFGW5DVcHOp-152" style="edgeStyle=orthogonalEdgeStyle;rounded=0;orthogonalLoop=1;jettySize=auto;html=1;entryX=0;entryY=0.5;entryDx=0;entryDy=0;entryPerimeter=0;" edge="1" parent="Rm7F8vrEzkFGW5DVcHOp-3" source="Rm7F8vrEzkFGW5DVcHOp-147" target="Rm7F8vrEzkFGW5DVcHOp-153">
          <mxGeometry relative="1" as="geometry">
            <mxPoint x="1940" y="130" as="targetPoint" />
          </mxGeometry>
        </mxCell>
        <mxCell id="Rm7F8vrEzkFGW5DVcHOp-154" value="Si" style="edgeLabel;html=1;align=center;verticalAlign=middle;resizable=0;points=[];" vertex="1" connectable="0" parent="Rm7F8vrEzkFGW5DVcHOp-152">
          <mxGeometry x="0.3418" relative="1" as="geometry">
            <mxPoint as="offset" />
          </mxGeometry>
        </mxCell>
        <mxCell id="Rm7F8vrEzkFGW5DVcHOp-147" value="¿Glosa &lt;br&gt;legalizada?" style="points=[[0.25,0.25,0],[0.5,0,0],[0.75,0.25,0],[1,0.5,0],[0.75,0.75,0],[0.5,1,0],[0.25,0.75,0],[0,0.5,0]];shape=mxgraph.bpmn.gateway2;html=1;verticalLabelPosition=top;labelBackgroundColor=#ffffff;verticalAlign=bottom;align=center;perimeter=rhombusPerimeter;outlineConnect=0;outline=none;symbol=none;labelPosition=center;fillColor=#d5e8d4;strokeColor=#82b366;" vertex="1" parent="Rm7F8vrEzkFGW5DVcHOp-3">
          <mxGeometry x="1840" y="105" width="50" height="50" as="geometry" />
        </mxCell>
        <mxCell id="Rm7F8vrEzkFGW5DVcHOp-149" style="edgeStyle=orthogonalEdgeStyle;rounded=0;orthogonalLoop=1;jettySize=auto;html=1;entryX=0;entryY=0.5;entryDx=0;entryDy=0;entryPerimeter=0;" edge="1" parent="Rm7F8vrEzkFGW5DVcHOp-3" source="Rm7F8vrEzkFGW5DVcHOp-136" target="Rm7F8vrEzkFGW5DVcHOp-147">
          <mxGeometry relative="1" as="geometry" />
        </mxCell>
        <mxCell id="Rm7F8vrEzkFGW5DVcHOp-153" value="Fin" style="points=[[0.145,0.145,0],[0.5,0,0],[0.855,0.145,0],[1,0.5,0],[0.855,0.855,0],[0.5,1,0],[0.145,0.855,0],[0,0.5,0]];shape=mxgraph.bpmn.event;html=1;verticalLabelPosition=bottom;labelBackgroundColor=#ffffff;verticalAlign=top;align=center;perimeter=ellipsePerimeter;outlineConnect=0;aspect=fixed;outline=end;symbol=terminate2;fillColor=#f8cecc;strokeColor=#b85450;" vertex="1" parent="Rm7F8vrEzkFGW5DVcHOp-3">
          <mxGeometry x="1920" y="105" width="50" height="50" as="geometry" />
        </mxCell>
        <mxCell id="Rm7F8vrEzkFGW5DVcHOp-4" value="OASIS - BINT" style="swimlane;html=1;startSize=20;horizontal=0;" vertex="1" parent="Rm7F8vrEzkFGW5DVcHOp-1">
          <mxGeometry y="440" width="2980" height="210" as="geometry" />
        </mxCell>
        <mxCell id="Rm7F8vrEzkFGW5DVcHOp-11" value="Cargar archivo con las glosas en módulo BINT" style="points=[[0.25,0,0],[0.5,0,0],[0.75,0,0],[1,0.25,0],[1,0.5,0],[1,0.75,0],[0.75,1,0],[0.5,1,0],[0.25,1,0],[0,0.75,0],[0,0.5,0],[0,0.25,0]];shape=mxgraph.bpmn.task2;whiteSpace=wrap;rectStyle=rounded;size=10;html=1;container=1;expand=0;collapsible=0;taskMarker=user;fillColor=#fff2cc;strokeColor=#d6b656;" vertex="1" parent="Rm7F8vrEzkFGW5DVcHOp-4">
          <mxGeometry x="230" y="65" width="120" height="80" as="geometry" />
        </mxCell>
        <mxCell id="Rm7F8vrEzkFGW5DVcHOp-12" style="edgeStyle=orthogonalEdgeStyle;rounded=0;orthogonalLoop=1;jettySize=auto;html=1;" edge="1" parent="Rm7F8vrEzkFGW5DVcHOp-1" source="Rm7F8vrEzkFGW5DVcHOp-9" target="Rm7F8vrEzkFGW5DVcHOp-13">
          <mxGeometry relative="1" as="geometry">
            <mxPoint x="300" y="220" as="targetPoint" />
          </mxGeometry>
        </mxCell>
        <mxCell id="Rm7F8vrEzkFGW5DVcHOp-31" value="manual" style="edgeLabel;html=1;align=center;verticalAlign=middle;resizable=0;points=[];" vertex="1" connectable="0" parent="Rm7F8vrEzkFGW5DVcHOp-12">
          <mxGeometry x="-0.2255" relative="1" as="geometry">
            <mxPoint as="offset" />
          </mxGeometry>
        </mxCell>
        <mxCell id="Rm7F8vrEzkFGW5DVcHOp-20" style="edgeStyle=orthogonalEdgeStyle;rounded=0;orthogonalLoop=1;jettySize=auto;html=1;" edge="1" parent="Rm7F8vrEzkFGW5DVcHOp-1" source="Rm7F8vrEzkFGW5DVcHOp-11" target="Rm7F8vrEzkFGW5DVcHOp-19">
          <mxGeometry relative="1" as="geometry" />
        </mxCell>
        <mxCell id="Rm7F8vrEzkFGW5DVcHOp-29" style="edgeStyle=orthogonalEdgeStyle;rounded=0;orthogonalLoop=1;jettySize=auto;html=1;entryX=0;entryY=0.5;entryDx=0;entryDy=0;entryPerimeter=0;exitX=0.5;exitY=1;exitDx=0;exitDy=0;exitPerimeter=0;" edge="1" parent="Rm7F8vrEzkFGW5DVcHOp-1" source="Rm7F8vrEzkFGW5DVcHOp-9" target="Rm7F8vrEzkFGW5DVcHOp-11">
          <mxGeometry relative="1" as="geometry" />
        </mxCell>
        <mxCell id="Rm7F8vrEzkFGW5DVcHOp-30" value="masiva" style="edgeLabel;html=1;align=center;verticalAlign=middle;resizable=0;points=[];" vertex="1" connectable="0" parent="Rm7F8vrEzkFGW5DVcHOp-29">
          <mxGeometry x="-0.5933" y="-1" relative="1" as="geometry">
            <mxPoint as="offset" />
          </mxGeometry>
        </mxCell>
        <mxCell id="Rm7F8vrEzkFGW5DVcHOp-57" style="edgeStyle=orthogonalEdgeStyle;rounded=0;orthogonalLoop=1;jettySize=auto;html=1;entryX=0;entryY=0.5;entryDx=0;entryDy=0;entryPerimeter=0;" edge="1" parent="Rm7F8vrEzkFGW5DVcHOp-1" source="Rm7F8vrEzkFGW5DVcHOp-45" target="Rm7F8vrEzkFGW5DVcHOp-91">
          <mxGeometry relative="1" as="geometry">
            <mxPoint x="1140" y="270" as="targetPoint" />
          </mxGeometry>
        </mxCell>
        <mxCell id="Rm7F8vrEzkFGW5DVcHOp-74" value="No" style="edgeLabel;html=1;align=center;verticalAlign=middle;resizable=0;points=[];" vertex="1" connectable="0" parent="Rm7F8vrEzkFGW5DVcHOp-57">
          <mxGeometry x="-0.2118" relative="1" as="geometry">
            <mxPoint as="offset" />
          </mxGeometry>
        </mxCell>
        <mxCell id="Rm7F8vrEzkFGW5DVcHOp-66" style="edgeStyle=orthogonalEdgeStyle;rounded=0;orthogonalLoop=1;jettySize=auto;html=1;entryX=0;entryY=0.5;entryDx=0;entryDy=0;entryPerimeter=0;exitX=0.5;exitY=0;exitDx=0;exitDy=0;exitPerimeter=0;" edge="1" parent="Rm7F8vrEzkFGW5DVcHOp-1" source="Rm7F8vrEzkFGW5DVcHOp-156" target="Rm7F8vrEzkFGW5DVcHOp-68">
          <mxGeometry relative="1" as="geometry">
            <mxPoint x="1400" y="700" as="targetPoint" />
            <mxPoint x="2160" y="240" as="sourcePoint" />
            <Array as="points">
              <mxPoint x="2015" y="240" />
            </Array>
          </mxGeometry>
        </mxCell>
        <mxCell id="Rm7F8vrEzkFGW5DVcHOp-67" value="No" style="edgeLabel;html=1;align=center;verticalAlign=middle;resizable=0;points=[];" vertex="1" connectable="0" parent="Rm7F8vrEzkFGW5DVcHOp-66">
          <mxGeometry x="-0.1887" y="1" relative="1" as="geometry">
            <mxPoint as="offset" />
          </mxGeometry>
        </mxCell>
        <mxCell id="Rm7F8vrEzkFGW5DVcHOp-71" style="edgeStyle=orthogonalEdgeStyle;rounded=0;orthogonalLoop=1;jettySize=auto;html=1;exitX=1;exitY=0.5;exitDx=0;exitDy=0;exitPerimeter=0;" edge="1" parent="Rm7F8vrEzkFGW5DVcHOp-1" source="Rm7F8vrEzkFGW5DVcHOp-156" target="Rm7F8vrEzkFGW5DVcHOp-72">
          <mxGeometry relative="1" as="geometry">
            <mxPoint x="1300" y="810" as="targetPoint" />
            <mxPoint x="2220" y="400" as="sourcePoint" />
            <Array as="points">
              <mxPoint x="2140" y="778" />
              <mxPoint x="2140" y="350" />
            </Array>
          </mxGeometry>
        </mxCell>
        <mxCell id="Rm7F8vrEzkFGW5DVcHOp-73" value="Si" style="edgeLabel;html=1;align=center;verticalAlign=middle;resizable=0;points=[];" vertex="1" connectable="0" parent="Rm7F8vrEzkFGW5DVcHOp-71">
          <mxGeometry x="0.18" relative="1" as="geometry">
            <mxPoint as="offset" />
          </mxGeometry>
        </mxCell>
        <mxCell id="Rm7F8vrEzkFGW5DVcHOp-78" style="edgeStyle=orthogonalEdgeStyle;rounded=0;orthogonalLoop=1;jettySize=auto;html=1;entryX=0;entryY=0.5;entryDx=0;entryDy=0;entryPerimeter=0;exitX=0.5;exitY=1;exitDx=0;exitDy=0;exitPerimeter=0;" edge="1" parent="Rm7F8vrEzkFGW5DVcHOp-1" source="Rm7F8vrEzkFGW5DVcHOp-45" target="Rm7F8vrEzkFGW5DVcHOp-77">
          <mxGeometry relative="1" as="geometry" />
        </mxCell>
        <mxCell id="Rm7F8vrEzkFGW5DVcHOp-79" value="Si" style="edgeLabel;html=1;align=center;verticalAlign=middle;resizable=0;points=[];" vertex="1" connectable="0" parent="Rm7F8vrEzkFGW5DVcHOp-78">
          <mxGeometry x="-0.263" y="1" relative="1" as="geometry">
            <mxPoint as="offset" />
          </mxGeometry>
        </mxCell>
        <mxCell id="Rm7F8vrEzkFGW5DVcHOp-126" style="edgeStyle=orthogonalEdgeStyle;rounded=0;orthogonalLoop=1;jettySize=auto;html=1;entryX=0;entryY=0.5;entryDx=0;entryDy=0;entryPerimeter=0;" edge="1" parent="Rm7F8vrEzkFGW5DVcHOp-1" source="Rm7F8vrEzkFGW5DVcHOp-116" target="Rm7F8vrEzkFGW5DVcHOp-132">
          <mxGeometry relative="1" as="geometry">
            <mxPoint x="2465" y="375" as="targetPoint" />
          </mxGeometry>
        </mxCell>
        <mxCell id="Rm7F8vrEzkFGW5DVcHOp-150" style="edgeStyle=orthogonalEdgeStyle;rounded=0;orthogonalLoop=1;jettySize=auto;html=1;" edge="1" parent="Rm7F8vrEzkFGW5DVcHOp-1" source="Rm7F8vrEzkFGW5DVcHOp-147" target="Rm7F8vrEzkFGW5DVcHOp-141">
          <mxGeometry relative="1" as="geometry">
            <mxPoint x="1785" y="735" as="targetPoint" />
          </mxGeometry>
        </mxCell>
        <mxCell id="Rm7F8vrEzkFGW5DVcHOp-151" value="No" style="edgeLabel;html=1;align=center;verticalAlign=middle;resizable=0;points=[];" vertex="1" connectable="0" parent="Rm7F8vrEzkFGW5DVcHOp-150">
          <mxGeometry x="-0.2204" y="-1" relative="1" as="geometry">
            <mxPoint as="offset" />
          </mxGeometry>
        </mxCell>
        <mxCell id="Rm7F8vrEzkFGW5DVcHOp-21" value="SOFSIN" style="swimlane;html=1;startSize=20;horizontal=0;" vertex="1" parent="Rm7F8vrEzkFGW5DVcHOp-1">
          <mxGeometry y="650" width="2980" height="480" as="geometry" />
        </mxCell>
        <mxCell id="Rm7F8vrEzkFGW5DVcHOp-77" value="¿Contributivo o&lt;br&gt;Subsidiado?" style="points=[[0.25,0.25,0],[0.5,0,0],[0.75,0.25,0],[1,0.5,0],[0.75,0.75,0],[0.5,1,0],[0.25,0.75,0],[0,0.5,0]];shape=mxgraph.bpmn.gateway2;html=1;verticalLabelPosition=bottom;labelBackgroundColor=#ffffff;verticalAlign=top;align=center;perimeter=rhombusPerimeter;outlineConnect=0;outline=none;symbol=none;fillColor=#d5e8d4;strokeColor=#82b366;" vertex="1" parent="Rm7F8vrEzkFGW5DVcHOp-21">
          <mxGeometry x="1140" y="335" width="50" height="50" as="geometry" />
        </mxCell>
        <mxCell id="Rm7F8vrEzkFGW5DVcHOp-81" value="Crear documento NCGRS" style="points=[[0.25,0,0],[0.5,0,0],[0.75,0,0],[1,0.25,0],[1,0.5,0],[1,0.75,0],[0.75,1,0],[0.5,1,0],[0.25,1,0],[0,0.75,0],[0,0.5,0],[0,0.25,0]];shape=mxgraph.bpmn.task2;whiteSpace=wrap;rectStyle=rounded;size=10;html=1;container=1;expand=0;collapsible=0;taskMarker=script;fillColor=#fff2cc;strokeColor=#d6b656;" vertex="1" parent="Rm7F8vrEzkFGW5DVcHOp-21">
          <mxGeometry x="1270" y="260" width="120" height="80" as="geometry" />
        </mxCell>
        <mxCell id="Rm7F8vrEzkFGW5DVcHOp-80" style="edgeStyle=orthogonalEdgeStyle;rounded=0;orthogonalLoop=1;jettySize=auto;html=1;" edge="1" parent="Rm7F8vrEzkFGW5DVcHOp-21" source="Rm7F8vrEzkFGW5DVcHOp-77" target="Rm7F8vrEzkFGW5DVcHOp-81">
          <mxGeometry relative="1" as="geometry">
            <mxPoint x="1240" y="220" as="targetPoint" />
          </mxGeometry>
        </mxCell>
        <mxCell id="Rm7F8vrEzkFGW5DVcHOp-96" value="S" style="edgeLabel;html=1;align=center;verticalAlign=middle;resizable=0;points=[];" vertex="1" connectable="0" parent="Rm7F8vrEzkFGW5DVcHOp-80">
          <mxGeometry x="0.5514" y="2" relative="1" as="geometry">
            <mxPoint as="offset" />
          </mxGeometry>
        </mxCell>
        <mxCell id="Rm7F8vrEzkFGW5DVcHOp-86" style="edgeStyle=orthogonalEdgeStyle;rounded=0;orthogonalLoop=1;jettySize=auto;html=1;" edge="1" parent="Rm7F8vrEzkFGW5DVcHOp-21" source="Rm7F8vrEzkFGW5DVcHOp-83" target="Rm7F8vrEzkFGW5DVcHOp-85">
          <mxGeometry relative="1" as="geometry" />
        </mxCell>
        <mxCell id="Rm7F8vrEzkFGW5DVcHOp-83" value="Crear documento NCGRC" style="points=[[0.25,0,0],[0.5,0,0],[0.75,0,0],[1,0.25,0],[1,0.5,0],[1,0.75,0],[0.75,1,0],[0.5,1,0],[0.25,1,0],[0,0.75,0],[0,0.5,0],[0,0.25,0]];shape=mxgraph.bpmn.task2;whiteSpace=wrap;rectStyle=rounded;size=10;html=1;container=1;expand=0;collapsible=0;taskMarker=script;fillColor=#fff2cc;strokeColor=#d6b656;" vertex="1" parent="Rm7F8vrEzkFGW5DVcHOp-21">
          <mxGeometry x="1270" y="375" width="120" height="80" as="geometry" />
        </mxCell>
        <mxCell id="Rm7F8vrEzkFGW5DVcHOp-82" style="edgeStyle=orthogonalEdgeStyle;rounded=0;orthogonalLoop=1;jettySize=auto;html=1;" edge="1" parent="Rm7F8vrEzkFGW5DVcHOp-21" source="Rm7F8vrEzkFGW5DVcHOp-77" target="Rm7F8vrEzkFGW5DVcHOp-83">
          <mxGeometry relative="1" as="geometry">
            <mxPoint x="1280" y="340" as="targetPoint" />
          </mxGeometry>
        </mxCell>
        <mxCell id="Rm7F8vrEzkFGW5DVcHOp-97" value="C" style="edgeLabel;html=1;align=center;verticalAlign=middle;resizable=0;points=[];" vertex="1" connectable="0" parent="Rm7F8vrEzkFGW5DVcHOp-82">
          <mxGeometry x="0.4904" y="2" relative="1" as="geometry">
            <mxPoint as="offset" />
          </mxGeometry>
        </mxCell>
        <mxCell id="Rm7F8vrEzkFGW5DVcHOp-85" value="" style="points=[[0.25,0.25,0],[0.5,0,0],[0.75,0.25,0],[1,0.5,0],[0.75,0.75,0],[0.5,1,0],[0.25,0.75,0],[0,0.5,0]];shape=mxgraph.bpmn.gateway2;html=1;verticalLabelPosition=bottom;labelBackgroundColor=#ffffff;verticalAlign=top;align=center;perimeter=rhombusPerimeter;outlineConnect=0;outline=end;symbol=general;fillColor=#d5e8d4;strokeColor=#82b366;" vertex="1" parent="Rm7F8vrEzkFGW5DVcHOp-21">
          <mxGeometry x="1440" y="335" width="50" height="50" as="geometry" />
        </mxCell>
        <mxCell id="Rm7F8vrEzkFGW5DVcHOp-84" style="edgeStyle=orthogonalEdgeStyle;rounded=0;orthogonalLoop=1;jettySize=auto;html=1;" edge="1" parent="Rm7F8vrEzkFGW5DVcHOp-21" source="Rm7F8vrEzkFGW5DVcHOp-81" target="Rm7F8vrEzkFGW5DVcHOp-85">
          <mxGeometry relative="1" as="geometry">
            <mxPoint x="1450" y="300" as="targetPoint" />
          </mxGeometry>
        </mxCell>
        <mxCell id="Rm7F8vrEzkFGW5DVcHOp-88" value="" style="points=[[0.145,0.145,0],[0.5,0,0],[0.855,0.145,0],[1,0.5,0],[0.855,0.855,0],[0.5,1,0],[0.145,0.855,0],[0,0.5,0]];shape=mxgraph.bpmn.event;html=1;verticalLabelPosition=bottom;labelBackgroundColor=#ffffff;verticalAlign=top;align=center;perimeter=ellipsePerimeter;outlineConnect=0;aspect=fixed;outline=end;symbol=terminate2;fillColor=#f8cecc;strokeColor=#b85450;" vertex="1" parent="Rm7F8vrEzkFGW5DVcHOp-21">
          <mxGeometry x="1520" y="335" width="50" height="50" as="geometry" />
        </mxCell>
        <mxCell id="Rm7F8vrEzkFGW5DVcHOp-87" style="edgeStyle=orthogonalEdgeStyle;rounded=0;orthogonalLoop=1;jettySize=auto;html=1;" edge="1" parent="Rm7F8vrEzkFGW5DVcHOp-21" source="Rm7F8vrEzkFGW5DVcHOp-85" target="Rm7F8vrEzkFGW5DVcHOp-88">
          <mxGeometry relative="1" as="geometry">
            <mxPoint x="1530" y="360" as="targetPoint" />
          </mxGeometry>
        </mxCell>
        <mxCell id="Rm7F8vrEzkFGW5DVcHOp-89" value="Crear documento NCGRS" style="points=[[0.25,0,0],[0.5,0,0],[0.75,0,0],[1,0.25,0],[1,0.5,0],[1,0.75,0],[0.75,1,0],[0.5,1,0],[0.25,1,0],[0,0.75,0],[0,0.5,0],[0,0.25,0]];shape=mxgraph.bpmn.task2;whiteSpace=wrap;rectStyle=rounded;size=10;html=1;container=1;expand=0;collapsible=0;taskMarker=script;fillColor=#fff2cc;strokeColor=#d6b656;" vertex="1" parent="Rm7F8vrEzkFGW5DVcHOp-21">
          <mxGeometry x="1270" y="23" width="120" height="80" as="geometry" />
        </mxCell>
        <mxCell id="Rm7F8vrEzkFGW5DVcHOp-90" value="Crear documento NCGRC" style="points=[[0.25,0,0],[0.5,0,0],[0.75,0,0],[1,0.25,0],[1,0.5,0],[1,0.75,0],[0.75,1,0],[0.5,1,0],[0.25,1,0],[0,0.75,0],[0,0.5,0],[0,0.25,0]];shape=mxgraph.bpmn.task2;whiteSpace=wrap;rectStyle=rounded;size=10;html=1;container=1;expand=0;collapsible=0;taskMarker=script;fillColor=#fff2cc;strokeColor=#d6b656;" vertex="1" parent="Rm7F8vrEzkFGW5DVcHOp-21">
          <mxGeometry x="1270" y="138" width="120" height="80" as="geometry" />
        </mxCell>
        <mxCell id="Rm7F8vrEzkFGW5DVcHOp-92" style="edgeStyle=orthogonalEdgeStyle;rounded=0;orthogonalLoop=1;jettySize=auto;html=1;" edge="1" parent="Rm7F8vrEzkFGW5DVcHOp-21" source="Rm7F8vrEzkFGW5DVcHOp-91" target="Rm7F8vrEzkFGW5DVcHOp-89">
          <mxGeometry relative="1" as="geometry" />
        </mxCell>
        <mxCell id="Rm7F8vrEzkFGW5DVcHOp-94" value="S" style="edgeLabel;html=1;align=center;verticalAlign=middle;resizable=0;points=[];" vertex="1" connectable="0" parent="Rm7F8vrEzkFGW5DVcHOp-92">
          <mxGeometry x="0.4862" y="-2" relative="1" as="geometry">
            <mxPoint as="offset" />
          </mxGeometry>
        </mxCell>
        <mxCell id="Rm7F8vrEzkFGW5DVcHOp-91" value="¿Contributivo o&lt;br&gt;Subsidiado?" style="points=[[0.25,0.25,0],[0.5,0,0],[0.75,0.25,0],[1,0.5,0],[0.75,0.75,0],[0.5,1,0],[0.25,0.75,0],[0,0.5,0]];shape=mxgraph.bpmn.gateway2;html=1;verticalLabelPosition=bottom;labelBackgroundColor=#ffffff;verticalAlign=top;align=center;perimeter=rhombusPerimeter;outlineConnect=0;outline=none;symbol=none;fillColor=#d5e8d4;strokeColor=#82b366;" vertex="1" parent="Rm7F8vrEzkFGW5DVcHOp-21">
          <mxGeometry x="1140" y="88" width="50" height="50" as="geometry" />
        </mxCell>
        <mxCell id="Rm7F8vrEzkFGW5DVcHOp-93" style="edgeStyle=orthogonalEdgeStyle;rounded=0;orthogonalLoop=1;jettySize=auto;html=1;entryX=0;entryY=0.5;entryDx=0;entryDy=0;entryPerimeter=0;" edge="1" parent="Rm7F8vrEzkFGW5DVcHOp-21" source="Rm7F8vrEzkFGW5DVcHOp-91" target="Rm7F8vrEzkFGW5DVcHOp-90">
          <mxGeometry relative="1" as="geometry" />
        </mxCell>
        <mxCell id="Rm7F8vrEzkFGW5DVcHOp-95" value="C" style="edgeLabel;html=1;align=center;verticalAlign=middle;resizable=0;points=[];" vertex="1" connectable="0" parent="Rm7F8vrEzkFGW5DVcHOp-93">
          <mxGeometry x="0.5255" y="3" relative="1" as="geometry">
            <mxPoint as="offset" />
          </mxGeometry>
        </mxCell>
        <mxCell id="Rm7F8vrEzkFGW5DVcHOp-99" value="Crear documento provisión NDGRS" style="points=[[0.25,0,0],[0.5,0,0],[0.75,0,0],[1,0.25,0],[1,0.5,0],[1,0.75,0],[0.75,1,0],[0.5,1,0],[0.25,1,0],[0,0.75,0],[0,0.5,0],[0,0.25,0]];shape=mxgraph.bpmn.task2;whiteSpace=wrap;rectStyle=rounded;size=10;html=1;container=1;expand=0;collapsible=0;taskMarker=script;fillColor=#fff2cc;strokeColor=#d6b656;" vertex="1" parent="Rm7F8vrEzkFGW5DVcHOp-21">
          <mxGeometry x="1420" y="23" width="120" height="80" as="geometry" />
        </mxCell>
        <mxCell id="Rm7F8vrEzkFGW5DVcHOp-98" style="edgeStyle=orthogonalEdgeStyle;rounded=0;orthogonalLoop=1;jettySize=auto;html=1;" edge="1" parent="Rm7F8vrEzkFGW5DVcHOp-21" source="Rm7F8vrEzkFGW5DVcHOp-89" target="Rm7F8vrEzkFGW5DVcHOp-99">
          <mxGeometry relative="1" as="geometry">
            <mxPoint x="1430" y="63" as="targetPoint" />
          </mxGeometry>
        </mxCell>
        <mxCell id="Rm7F8vrEzkFGW5DVcHOp-101" value="Crear documento provisión NDGRC" style="points=[[0.25,0,0],[0.5,0,0],[0.75,0,0],[1,0.25,0],[1,0.5,0],[1,0.75,0],[0.75,1,0],[0.5,1,0],[0.25,1,0],[0,0.75,0],[0,0.5,0],[0,0.25,0]];shape=mxgraph.bpmn.task2;whiteSpace=wrap;rectStyle=rounded;size=10;html=1;container=1;expand=0;collapsible=0;taskMarker=script;fillColor=#fff2cc;strokeColor=#d6b656;" vertex="1" parent="Rm7F8vrEzkFGW5DVcHOp-21">
          <mxGeometry x="1420" y="138" width="120" height="80" as="geometry" />
        </mxCell>
        <mxCell id="Rm7F8vrEzkFGW5DVcHOp-100" style="edgeStyle=orthogonalEdgeStyle;rounded=0;orthogonalLoop=1;jettySize=auto;html=1;" edge="1" parent="Rm7F8vrEzkFGW5DVcHOp-21" source="Rm7F8vrEzkFGW5DVcHOp-90" target="Rm7F8vrEzkFGW5DVcHOp-101">
          <mxGeometry relative="1" as="geometry">
            <mxPoint x="1420" y="178" as="targetPoint" />
          </mxGeometry>
        </mxCell>
        <mxCell id="Rm7F8vrEzkFGW5DVcHOp-105" value="" style="points=[[0.25,0.25,0],[0.5,0,0],[0.75,0.25,0],[1,0.5,0],[0.75,0.75,0],[0.5,1,0],[0.25,0.75,0],[0,0.5,0]];shape=mxgraph.bpmn.gateway2;html=1;verticalLabelPosition=bottom;labelBackgroundColor=#ffffff;verticalAlign=top;align=center;perimeter=rhombusPerimeter;outlineConnect=0;outline=end;symbol=general;fillColor=#d5e8d4;strokeColor=#82b366;" vertex="1" parent="Rm7F8vrEzkFGW5DVcHOp-21">
          <mxGeometry x="1560" y="100" width="50" height="50" as="geometry" />
        </mxCell>
        <mxCell id="Rm7F8vrEzkFGW5DVcHOp-106" style="edgeStyle=orthogonalEdgeStyle;rounded=0;orthogonalLoop=1;jettySize=auto;html=1;entryX=0.5;entryY=1;entryDx=0;entryDy=0;entryPerimeter=0;" edge="1" parent="Rm7F8vrEzkFGW5DVcHOp-21" source="Rm7F8vrEzkFGW5DVcHOp-101" target="Rm7F8vrEzkFGW5DVcHOp-105">
          <mxGeometry relative="1" as="geometry" />
        </mxCell>
        <mxCell id="Rm7F8vrEzkFGW5DVcHOp-107" style="edgeStyle=orthogonalEdgeStyle;rounded=0;orthogonalLoop=1;jettySize=auto;html=1;entryX=0.5;entryY=0;entryDx=0;entryDy=0;entryPerimeter=0;" edge="1" parent="Rm7F8vrEzkFGW5DVcHOp-21" source="Rm7F8vrEzkFGW5DVcHOp-99" target="Rm7F8vrEzkFGW5DVcHOp-105">
          <mxGeometry relative="1" as="geometry" />
        </mxCell>
        <mxCell id="Rm7F8vrEzkFGW5DVcHOp-122" style="edgeStyle=orthogonalEdgeStyle;rounded=0;orthogonalLoop=1;jettySize=auto;html=1;" edge="1" parent="Rm7F8vrEzkFGW5DVcHOp-21" source="Rm7F8vrEzkFGW5DVcHOp-116" target="Rm7F8vrEzkFGW5DVcHOp-118">
          <mxGeometry relative="1" as="geometry" />
        </mxCell>
        <mxCell id="Rm7F8vrEzkFGW5DVcHOp-116" value="Crear registro en SOFSIN con el tipo documento correspondiente y el valor de la diferencia" style="points=[[0.25,0,0],[0.5,0,0],[0.75,0,0],[1,0.25,0],[1,0.5,0],[1,0.75,0],[0.75,1,0],[0.5,1,0],[0.25,1,0],[0,0.75,0],[0,0.5,0],[0,0.25,0]];shape=mxgraph.bpmn.task2;whiteSpace=wrap;rectStyle=rounded;size=10;html=1;container=1;expand=0;collapsible=0;taskMarker=script;fillColor=#fff2cc;strokeColor=#d6b656;" vertex="1" parent="Rm7F8vrEzkFGW5DVcHOp-21">
          <mxGeometry x="2290" y="85.00004882812505" width="120" height="80" as="geometry" />
        </mxCell>
        <mxCell id="Rm7F8vrEzkFGW5DVcHOp-118" value="List" style="swimlane;fontStyle=0;childLayout=stackLayout;horizontal=1;startSize=26;horizontalStack=0;resizeParent=1;resizeParentMax=0;resizeLast=0;collapsible=1;marginBottom=0;html=1;fillColor=#f5f5f5;fontColor=#333333;strokeColor=#666666;" vertex="1" parent="Rm7F8vrEzkFGW5DVcHOp-21">
          <mxGeometry x="2200" y="221" width="140" height="130" as="geometry" />
        </mxCell>
        <mxCell id="Rm7F8vrEzkFGW5DVcHOp-119" value="NDLRS" style="text;strokeColor=none;fillColor=none;align=left;verticalAlign=top;spacingLeft=4;spacingRight=4;overflow=hidden;rotatable=0;points=[[0,0.5],[1,0.5]];portConstraint=eastwest;whiteSpace=wrap;html=1;" vertex="1" parent="Rm7F8vrEzkFGW5DVcHOp-118">
          <mxGeometry y="26" width="140" height="26" as="geometry" />
        </mxCell>
        <mxCell id="Rm7F8vrEzkFGW5DVcHOp-120" value="NDLRC" style="text;strokeColor=none;fillColor=none;align=left;verticalAlign=top;spacingLeft=4;spacingRight=4;overflow=hidden;rotatable=0;points=[[0,0.5],[1,0.5]];portConstraint=eastwest;whiteSpace=wrap;html=1;" vertex="1" parent="Rm7F8vrEzkFGW5DVcHOp-118">
          <mxGeometry y="52" width="140" height="26" as="geometry" />
        </mxCell>
        <mxCell id="Rm7F8vrEzkFGW5DVcHOp-121" value="NCLRS" style="text;strokeColor=none;fillColor=none;align=left;verticalAlign=top;spacingLeft=4;spacingRight=4;overflow=hidden;rotatable=0;points=[[0,0.5],[1,0.5]];portConstraint=eastwest;whiteSpace=wrap;html=1;" vertex="1" parent="Rm7F8vrEzkFGW5DVcHOp-118">
          <mxGeometry y="78" width="140" height="26" as="geometry" />
        </mxCell>
        <mxCell id="Rm7F8vrEzkFGW5DVcHOp-123" value="NCLRC" style="text;strokeColor=none;fillColor=none;align=left;verticalAlign=top;spacingLeft=4;spacingRight=4;overflow=hidden;rotatable=0;points=[[0,0.5],[1,0.5]];portConstraint=eastwest;whiteSpace=wrap;html=1;" vertex="1" parent="Rm7F8vrEzkFGW5DVcHOp-118">
          <mxGeometry y="104" width="140" height="26" as="geometry" />
        </mxCell>
        <mxCell id="Rm7F8vrEzkFGW5DVcHOp-134" value="" style="points=[[0.145,0.145,0],[0.5,0,0],[0.855,0.145,0],[1,0.5,0],[0.855,0.855,0],[0.5,1,0],[0.145,0.855,0],[0,0.5,0]];shape=mxgraph.bpmn.event;html=1;verticalLabelPosition=bottom;labelBackgroundColor=#ffffff;verticalAlign=top;align=center;perimeter=ellipsePerimeter;outlineConnect=0;aspect=fixed;outline=end;symbol=terminate2;fillColor=#f8cecc;strokeColor=#b85450;" vertex="1" parent="Rm7F8vrEzkFGW5DVcHOp-21">
          <mxGeometry x="1640" y="100" width="50" height="50" as="geometry" />
        </mxCell>
        <mxCell id="Rm7F8vrEzkFGW5DVcHOp-108" style="edgeStyle=orthogonalEdgeStyle;rounded=0;orthogonalLoop=1;jettySize=auto;html=1;" edge="1" parent="Rm7F8vrEzkFGW5DVcHOp-21" source="Rm7F8vrEzkFGW5DVcHOp-105" target="Rm7F8vrEzkFGW5DVcHOp-134">
          <mxGeometry relative="1" as="geometry">
            <mxPoint x="1640" y="124.99999999999977" as="targetPoint" />
          </mxGeometry>
        </mxCell>
        <mxCell id="Rm7F8vrEzkFGW5DVcHOp-141" value="¿Existe provisión &lt;br&gt;con saldo?" style="points=[[0.25,0.25,0],[0.5,0,0],[0.75,0.25,0],[1,0.5,0],[0.75,0.75,0],[0.5,1,0],[0.25,0.75,0],[0,0.5,0]];shape=mxgraph.bpmn.gateway2;html=1;verticalLabelPosition=bottom;labelBackgroundColor=#ffffff;verticalAlign=top;align=right;perimeter=rhombusPerimeter;outlineConnect=0;outline=none;symbol=none;fillColor=#d5e8d4;strokeColor=#82b366;labelPosition=left;" vertex="1" parent="Rm7F8vrEzkFGW5DVcHOp-21">
          <mxGeometry x="1840" y="103" width="50" height="50" as="geometry" />
        </mxCell>
        <mxCell id="Rm7F8vrEzkFGW5DVcHOp-144" value="El documento FL no debió crearse" style="text;html=1;align=center;verticalAlign=middle;whiteSpace=wrap;rounded=0;" vertex="1" parent="Rm7F8vrEzkFGW5DVcHOp-21">
          <mxGeometry x="1930" y="209" width="90" height="62" as="geometry" />
        </mxCell>
        <mxCell id="Rm7F8vrEzkFGW5DVcHOp-143" value="Fin" style="points=[[0.145,0.145,0],[0.5,0,0],[0.855,0.145,0],[1,0.5,0],[0.855,0.855,0],[0.5,1,0],[0.145,0.855,0],[0,0.5,0]];shape=mxgraph.bpmn.event;html=1;verticalLabelPosition=bottom;labelBackgroundColor=#ffffff;verticalAlign=top;align=center;perimeter=ellipsePerimeter;outlineConnect=0;aspect=fixed;outline=end;symbol=terminate2;fillColor=#f8cecc;strokeColor=#b85450;" vertex="1" parent="Rm7F8vrEzkFGW5DVcHOp-21">
          <mxGeometry x="1840" y="215" width="50" height="50" as="geometry" />
        </mxCell>
        <mxCell id="Rm7F8vrEzkFGW5DVcHOp-142" style="edgeStyle=orthogonalEdgeStyle;rounded=0;orthogonalLoop=1;jettySize=auto;html=1;" edge="1" parent="Rm7F8vrEzkFGW5DVcHOp-21" source="Rm7F8vrEzkFGW5DVcHOp-141" target="Rm7F8vrEzkFGW5DVcHOp-143">
          <mxGeometry relative="1" as="geometry">
            <mxPoint x="2005" y="200" as="targetPoint" />
          </mxGeometry>
        </mxCell>
        <mxCell id="Rm7F8vrEzkFGW5DVcHOp-146" value="No" style="edgeLabel;html=1;align=center;verticalAlign=middle;resizable=0;points=[];" vertex="1" connectable="0" parent="Rm7F8vrEzkFGW5DVcHOp-142">
          <mxGeometry x="-0.3318" y="1" relative="1" as="geometry">
            <mxPoint as="offset" />
          </mxGeometry>
        </mxCell>
        <mxCell id="Rm7F8vrEzkFGW5DVcHOp-145" style="edgeStyle=orthogonalEdgeStyle;rounded=0;orthogonalLoop=1;jettySize=auto;html=1;" edge="1" parent="Rm7F8vrEzkFGW5DVcHOp-21" source="Rm7F8vrEzkFGW5DVcHOp-144" target="Rm7F8vrEzkFGW5DVcHOp-143">
          <mxGeometry relative="1" as="geometry" />
        </mxCell>
        <mxCell id="Rm7F8vrEzkFGW5DVcHOp-156" value="¿Saldo &amp;gt; 0?" style="points=[[0.25,0.25,0],[0.5,0,0],[0.75,0.25,0],[1,0.5,0],[0.75,0.75,0],[0.5,1,0],[0.25,0.75,0],[0,0.5,0]];shape=mxgraph.bpmn.gateway2;html=1;verticalLabelPosition=bottom;labelBackgroundColor=#ffffff;verticalAlign=top;align=center;perimeter=rhombusPerimeter;outlineConnect=0;outline=none;symbol=none;fillColor=#d5e8d4;strokeColor=#82b366;" vertex="1" parent="Rm7F8vrEzkFGW5DVcHOp-21">
          <mxGeometry x="1990" y="103" width="50" height="50" as="geometry" />
        </mxCell>
        <mxCell id="Rm7F8vrEzkFGW5DVcHOp-155" style="edgeStyle=orthogonalEdgeStyle;rounded=0;orthogonalLoop=1;jettySize=auto;html=1;" edge="1" parent="Rm7F8vrEzkFGW5DVcHOp-21" source="Rm7F8vrEzkFGW5DVcHOp-141" target="Rm7F8vrEzkFGW5DVcHOp-156">
          <mxGeometry relative="1" as="geometry">
            <mxPoint x="1940" y="128" as="targetPoint" />
          </mxGeometry>
        </mxCell>
        <mxCell id="Rm7F8vrEzkFGW5DVcHOp-110" style="edgeStyle=orthogonalEdgeStyle;rounded=0;orthogonalLoop=1;jettySize=auto;html=1;entryX=0;entryY=0.5;entryDx=0;entryDy=0;entryPerimeter=0;" edge="1" parent="Rm7F8vrEzkFGW5DVcHOp-1" source="Rm7F8vrEzkFGW5DVcHOp-72" target="Rm7F8vrEzkFGW5DVcHOp-116">
          <mxGeometry relative="1" as="geometry">
            <mxPoint x="2240" y="350" as="targetPoint" />
          </mxGeometry>
        </mxCell>
      </root>
    </mxGraphModel>
  </diagram>
</mxfile>
